<svg id="Layer_5" enable-background="new 0 0 64 64" height="512" viewBox="0 0 64 64" width="512" xmlns="http://www.w3.org/2000/svg" xmlns:xlink="http://www.w3.org/1999/xlink"><linearGradient id="SVGID_1_" gradientUnits="userSpaceOnUse" x1="32" x2="32" y1="63" y2="1"><stop offset="0" stop-color="#9f2fff"/><stop offset="1" stop-color="#0bb1d3"/></linearGradient><path d="m22.382 31 2 4h1.618v18.217c-1.167.452-2 1.579-2 2.904 0 .834.325 1.618.914 2.207l2.965 2.965c1.1 1.101 2.564 1.707 4.121 1.707s3.021-.606 4.121-1.707l2.965-2.965c.589-.589.914-1.373.914-2.207 0-1.325-.833-2.452-2-2.904v-18.217h1.618l2-4h8.685l6.697-4.465v-21.07l-6.697-4.465h-36.606l-6.697 4.465v21.07l6.697 4.465zm26.618-2h-34v-26h34zm-21 24v-2h8v2zm8-4h-8v-2h8zm0-4h-8v-2h8zm0-4h-8v-2h8zm1.672 15.914-2.965 2.965c-1.446 1.446-3.968 1.446-5.414 0l-2.965-2.965c-.211-.212-.328-.493-.328-.793 0-.618.503-1.121 1.121-1.121h9.758c.618 0 1.121.503 1.121 1.121 0 .3-.117.581-.328.793zm-1.672-19.914h-8v-2h8zm2.382-4h-12.764l-1-2h14.764zm16.618-7.535-4 2.667v-24.264l4 2.667zm-46-18.93 4-2.667v24.263l-4-2.667zm38 20.465v-22h-30v22zm-10-11c0 2.757-2.243 5-5 5s-5-2.243-5-5 2.243-5 5-5 5 2.243 5 5zm-5 7c1.984 0 3.774-.834 5.049-2.164l5.83 4.164h-21.758l5.83-4.164c1.275 1.33 3.065 2.164 5.049 2.164zm6.214-3.791c.499-.962.786-2.052.786-3.209s-.287-2.247-.786-3.21l6.786-4.847v16.113zm-1.165-8.045c-1.275-1.33-3.065-2.164-5.049-2.164s-3.774.834-5.049 2.164l-5.83-4.164h21.759zm-11.263 1.626c-.499.963-.786 2.053-.786 3.21s.287 2.247.786 3.21l-6.786 4.847v-16.114zm6.214.21c-1.654 0-3 1.346-3 3s1.346 3 3 3 3-1.346 3-3-1.346-3-3-3zm0 4c-.551 0-1-.449-1-1s.449-1 1-1 1 .449 1 1-.449 1-1 1zm11-2v2h-2v-2zm-22 2v-2h2v2z" fill="url(#SVGID_1_)"/></svg>